inDegrees=no
num_controls=7
num_derivatives=13
num_iterations=78
num_multipliers=7
num_parameters=0
num_slacks=7
num_states=26
objective=0.425244
objective_accelerations=0.038808
objective_balance=0.002367
objective_effort=0.067700
objective_height=0.304512
objective_ligament=0.011857
solver_duration=1040.571183
status=Solve_Succeeded
success=true
DataType=double
version=3
OpenSimVersion=4.5
endheader
time	/jointset/ground_pelvis/pelvis_tilt/value	/jointset/ground_pelvis/pelvis_tx/value	/jointset/ground_pelvis/pelvis_ty/value	/jointset/hip_l/hip_flexion_l/value	/jointset/hip_l/hip_adduction_l/value	/jointset/hip_l/hip_rotation_l/value	/jointset/back/lumbar_extension/value	/jointset/patellofemoral_l/patellar_flexion_l/value	/jointset/knee_l/knee_flexion_l/value	/jointset/knee_l/knee_adduction_l/value	/jointset/knee_l/knee_rotation_l/value	/jointset/ankle_l/ankle_angle_l/value	/jointset/subtalar_l/subtalar_angle_l/value	/jointset/ground_pelvis/pelvis_tilt/speed	/jointset/ground_pelvis/pelvis_tx/speed	/jointset/ground_pelvis/pelvis_ty/speed	/jointset/hip_l/hip_flexion_l/speed	/jointset/hip_l/hip_adduction_l/speed	/jointset/hip_l/hip_rotation_l/speed	/jointset/back/lumbar_extension/speed	/jointset/patellofemoral_l/patellar_flexion_l/speed	/jointset/knee_l/knee_flexion_l/speed	/jointset/knee_l/knee_adduction_l/speed	/jointset/knee_l/knee_rotation_l/speed	/jointset/ankle_l/ankle_angle_l/speed	/jointset/subtalar_l/subtalar_angle_l/speed	/forceset/tau_hip_flexion_l	/forceset/tau_hip_adduction_l	/forceset/tau_hip_rotation_l	/forceset/tau_knee_flexion_l	/forceset/tau_ankle_angle_l	/forceset/tau_subtalar_angle_l	/forceset/tau_lumbar_extension	lambda_cid13_p0	lambda_cid13_p1	lambda_cid13_p2	lambda_cid13_p3	lambda_cid13_p4	lambda_cid13_p5	lambda_cid14_p0	/jointset/ground_pelvis/pelvis_tilt/accel	/jointset/ground_pelvis/pelvis_tx/accel	/jointset/ground_pelvis/pelvis_ty/accel	/jointset/hip_l/hip_flexion_l/accel	/jointset/hip_l/hip_adduction_l/accel	/jointset/hip_l/hip_rotation_l/accel	/jointset/back/lumbar_extension/accel	/jointset/patellofemoral_l/patellar_flexion_l/accel	/jointset/knee_l/knee_flexion_l/accel	/jointset/knee_l/knee_adduction_l/accel	/jointset/knee_l/knee_rotation_l/accel	/jointset/ankle_l/ankle_angle_l/accel	/jointset/subtalar_l/subtalar_angle_l/accel	gamma_cid13_p0	gamma_cid13_p1	gamma_cid13_p2	gamma_cid13_p3	gamma_cid13_p4	gamma_cid13_p5	gamma_cid14_p0
1.5	-0.05639963378415429	-0.07778851972975571	0.6677715604113806	1.33787560070527	-0.3121488709024811	-0.008039456765516522	-0.9179186787809122	1.440497287192713	1.440497287193041	0.04983285410461274	-0.1745114385778687	0.2667172503243016	0.08189995918276793	0.3077800302038711	0.1328433082633906	1.030731429546259	-3.194408352018156	-0.01336370761755766	-0.6283606871560018	0.4807871059630618	-3.044717884822381	-3.044717884821781	-0.5205873564156093	0.0001278804794482668	-0.3543313922820515	-0.1693860157596926	-0.3479484077746366	-0.004403443389320592	-0.01779513910517119	-0.3972731335055948	0.1213847585530222	0.04207941860181969	0.4291707405673952	-8.67708673505817	-13.50625535614066	-2.012798388118227	-18.00155834117516	-769.2122305980747	-75.52382825934946	-0.04266440072846821	1.71937813645093	1.438481408361481	0.4568015045489788	-4.306082143647884	0.4476404100379872	-1.697119333289972	3.633375672256923	-5.714054282792164	-5.714054282792413	-0.2517564808228628	0.03900811259589024	-3.494623085973747	-0.8741919322288108	-3.178236849594754e-07	2.216236359420133e-06	2.854962529282765e-06	1.028206781188098e-06	1.442505050299515e-07	2.845066702188019e-06	-1.140654603026513e-07
1.51	-0.05323659692235211	-0.07638735899725319	0.6780984904398464	1.305720359021324	-0.3122605358363464	-0.01441014744562814	-0.9129271692562366	1.409768236244589	1.409768236244526	0.04461664309661244	-0.1745101579720929	0.2629999690897536	0.08016259901471484	0.3247289307744796	0.1474627338407962	1.03434401617029	-3.236251864109035	-0.008931210724661711	-0.6457795652352967	0.5177229636795868	-3.100733387849345	-3.100733387848766	-0.5225730680071952	0.0001250873113775663	-0.3890224533452679	-0.17795296502037	-0.3392828528130318	-0.003296961384442177	-0.01713751604395047	-0.3869946382284103	0.1210346965784562	0.0430559153039133	0.4206096037182088	-7.955303198297018	-14.31601295187491	-1.587531844069183	-19.32458836056029	-757.6325800028407	-75.60027917113379	-0.0430312850874783	1.667899403660386	1.484938810955903	0.2669396373192778	-4.065267502701444	0.4463932211163241	-1.76448577845356	3.754915527452965	-5.491469043991033	-5.491469043994094	-0.1594652169078773	-0.01992876699369101	-3.440907292923567	-0.8285701797614384	-2.229639584367716e-07	2.204678595200856e-06	2.278875576831563e-06	9.480054980415475e-07	1.691403310947694e-07	2.17100057324001e-06	-1.14770509062282e-08
1.52	-0.04990702037758572	-0.07483775087327146	0.6884522368137505	1.27315832586429	-0.3123268080228429	-0.02095506965317376	-0.9075600562131754	1.378489796119927	1.378489796119472	0.03938307762898502	-0.1745089064450947	0.2589388653092878	0.07834344460270011	0.3410879667968728	0.1625327865592304	1.036094698633883	-3.275766646635654	-0.004285158143728173	-0.6632069926427647	0.5559078096402198	-3.154595720130011	-3.154595720129454	-0.5240582483420391	0.0001220647239011957	-0.4230959014656037	-0.185744864552017	-0.3306172978514285	-0.002190479379565514	-0.01647989298271478	-0.3767161429512251	0.12068463460389	0.04403241200600428	0.4120484668690213	-7.260774888305883	-15.11543321331808	-1.170274179775169	-20.56852000612415	-746.3782512824517	-75.73436060187392	-0.04333699300197237	1.601405226807862	1.528606836567201	0.08442067246134925	-3.840336230795931	0.490351547645497	-1.698829198924612	3.883173321078491	-5.283420133532803	-5.283420133533084	-0.1516502294745064	0.03896222871475278	-3.371100497397605	-0.7191819864227476	-1.111381260027914e-07	2.205679996349504e-06	1.61480712358118e-06	8.51896422211261e-07	2.140143884399353e-07	1.514025370478458e-06	1.007012539944547e-07
1.53	-0.04641694030171524	-0.07313524286908261	0.6988141388007405	1.240212627337276	-0.3123457480790875	-0.02767307385538815	-0.9018052573529636	1.346683866661455	1.346683866661328	0.03413546842490063	-0.1745077832605779	0.2545406368727501	0.07645018751293133	0.3567996326237435	0.1780377119361461	1.035965623276299	-3.312963059398285	0.0005436361057509356	-0.6803656429981235	0.5952408565665841	-3.2061814671326	-3.206181467132336	-0.5254061486886262	0.0001268227325883006	-0.4563880771202702	-0.1927405353470193	-0.3209669805535431	-0.001311931891241806	-0.01590129368996803	-0.3660248964564228	0.1207343705704982	0.04488196030203388	0.4024297382630924	-6.378700609032669	-15.87658995044979	-0.77735275714108	-21.94524541060092	-734.0661510051752	-75.70826617260707	-0.04349483412812277	1.536824336254996	1.5719057138206	-0.1095198605408652	-3.597762687533643	0.4859198815320975	-1.719842463453474	3.986704503053579	-5.034904034601524	-5.03490403464529	-0.1173733804981165	-0.01500255819419651	-3.283924296333722	-0.665264406219584	1.871419396191947e-08	2.220025510701571e-06	8.5725832573167e-07	7.388853166545057e-07	2.801216915204707e-07	8.752092767900178e-07	2.230688228684136e-07
1.54	-0.04277358815245116	-0.07127559154601125	0.7091651603900202	1.206907270904928	-0.3123150448892508	-0.03456175646307855	-0.8956514611985606	1.314374329322761	1.31437432932296	0.02887617752870355	-0.1745058595250024	0.2498143570402992	0.07449187275917639	0.3717423814757486	0.1939614503357311	1.033918619091814	-3.347698227702395	0.00564349107254963	-0.6973426737379614	0.6357072684784769	-3.255317296174375	-3.255317296174401	-0.5263945867651058	0.0002821749356799309	-0.4887061806482383	-0.1987563973492461	-0.3113166632556588	-0.0004333844029193065	-0.01532269439721316	-0.3553336499616201	0.1207841065371062	0.04573150859806172	0.3928110096571628	-5.517818530977368	-16.62845572792069	-0.3922886771737626	-23.27113719242019	-722.0019289311709	-75.748781009453	-0.04356466477712658	1.4476218318347	1.612369441101065	-0.2991650929186422	-3.348087339091771	0.5445636911094071	-1.662505275820462	4.109846318184182	-4.793436541370042	-4.793436541369823	-0.07975777545298804	0.06908106759565322	-3.176286072057899	-0.5232202278676233	1.868421853776296e-07	2.736252553589025e-06	3.64925733062034e-07	6.872839438310835e-07	4.179316794236296e-07	5.587187205713123e-07	3.761477803144551e-07
